<svg width="80" height="20" viewBox="0 0 80 20" fill="none" xmlns="http://www.w3.org/2000/svg">
<circle cx="9.70874" cy="9.70874" r="9.70874" fill="#151875"/>
<path d="M10.8201 13.9791V9.7352H12.2519L12.4647 8.07358H10.8201V7.0152C10.8201 6.53571 10.9537 6.20743 11.6419 6.20743H12.5139V4.726C12.0896 4.68054 11.6631 4.65858 11.2365 4.66024C9.97095 4.66024 9.10208 5.4328 9.10208 6.85105V8.07047H7.67969V9.73209H9.10519V13.9791H10.8201Z" fill="white"/>
<circle cx="70.2913" cy="9.70874" r="9.70874" fill="#151875"/>
<path d="M75.932 5.66303C75.4996 5.85461 75.0351 5.98406 74.5468 6.04257C75.0507 5.74111 75.4276 5.26664 75.6073 4.70769C75.1339 4.98885 74.6159 5.18675 74.0756 5.2928C73.7123 4.9049 73.2311 4.64779 72.7068 4.5614C72.1824 4.475 71.6441 4.56415 71.1756 4.815C70.707 5.06586 70.3344 5.46438 70.1156 5.9487C69.8968 6.43302 69.8439 6.97604 69.9654 7.49345C69.0062 7.44529 68.0679 7.196 67.2114 6.76175C66.3549 6.3275 65.5992 5.718 64.9934 4.9728C64.7863 5.33008 64.6672 5.74432 64.6672 6.18549C64.667 6.58264 64.7648 6.9737 64.952 7.32399C65.1391 7.67428 65.4098 7.97295 65.7401 8.19351C65.3571 8.18133 64.9825 8.07783 64.6476 7.89164V7.9227C64.6475 8.47972 64.8402 9.0196 65.1929 9.45073C65.5456 9.88186 66.0366 10.1777 66.5826 10.288C66.2272 10.3842 65.8547 10.3983 65.4931 10.3294C65.6472 10.8087 65.9472 11.2278 66.3513 11.5281C66.7554 11.8284 67.2432 11.9948 67.7466 12.004C66.8921 12.6748 65.8369 13.0386 64.7506 13.037C64.5582 13.0371 64.3659 13.0258 64.1748 13.0034C65.2774 13.7123 66.561 14.0886 67.8719 14.0871C72.3094 14.0871 74.7353 10.4118 74.7353 7.22419C74.7353 7.12063 74.7327 7.01604 74.7281 6.91248C75.1999 6.57123 75.6072 6.14867 75.9309 5.66458L75.932 5.66303Z" fill="white"/>
<circle cx="40" cy="9.70874" r="9.70874" fill="#151875"/>
<path d="M44.2444 7.40715C44.2392 7.01499 44.1658 6.62671 44.0275 6.25971C43.9075 5.95015 43.7243 5.669 43.4896 5.43425C43.2548 5.1995 42.9737 5.01629 42.6641 4.89635C42.3018 4.76035 41.9191 4.68681 41.5322 4.67887C41.0341 4.6566 40.8762 4.65039 39.6117 4.65039C38.3472 4.65039 38.1852 4.65039 37.6907 4.67887C37.3039 4.68687 36.9214 4.76041 36.5593 4.89635C36.2497 5.01621 35.9685 5.19938 35.7337 5.43415C35.4989 5.66891 35.3158 5.9501 35.1959 6.25971C35.0596 6.62172 34.9863 7.00436 34.9789 7.3911C34.9567 7.88974 34.95 8.04767 34.95 9.31214C34.95 10.5766 34.95 10.7382 34.9789 11.2332C34.9867 11.6205 35.0597 12.0026 35.1959 12.3656C35.316 12.6751 35.4993 12.9562 35.7341 13.1909C35.969 13.4255 36.2502 13.6086 36.5598 13.7284C36.9209 13.8699 37.3035 13.9487 37.6912 13.9615C38.1898 13.9837 38.3478 13.9905 39.6122 13.9905C40.8767 13.9905 41.0388 13.9905 41.5333 13.9615C41.9201 13.9538 42.3029 13.8805 42.6652 13.7445C42.9746 13.6244 43.2557 13.4412 43.4905 13.2064C43.7252 12.9717 43.9084 12.6906 44.0285 12.3811C44.1647 12.0187 44.2377 11.6365 44.2455 11.2487C44.2677 10.7506 44.2745 10.5927 44.2745 9.32767C44.2734 8.06321 44.2734 7.90269 44.2444 7.40715ZM39.6086 11.7033C38.2861 11.7033 37.2148 10.632 37.2148 9.30955C37.2148 7.98709 38.2861 6.91576 39.6086 6.91576C40.2435 6.91576 40.8523 7.16796 41.3013 7.61689C41.7502 8.06581 42.0024 8.67468 42.0024 9.30955C42.0024 9.94442 41.7502 10.5533 41.3013 11.0022C40.8523 11.4511 40.2435 11.7033 39.6086 11.7033ZM42.0977 7.38541C41.7885 7.38541 41.5395 7.13583 41.5395 6.82722C41.5395 6.75395 41.5539 6.6814 41.5819 6.61371C41.61 6.54602 41.6511 6.48451 41.7029 6.4327C41.7547 6.3809 41.8162 6.3398 41.8839 6.31176C41.9516 6.28372 42.0241 6.26929 42.0974 6.26929C42.1707 6.26929 42.2432 6.28372 42.3109 6.31176C42.3786 6.3398 42.4401 6.3809 42.4919 6.4327C42.5437 6.48451 42.5848 6.54602 42.6129 6.61371C42.6409 6.6814 42.6553 6.75395 42.6553 6.82722C42.6553 7.13583 42.4057 7.38541 42.0977 7.38541Z" fill="white"/>
<path d="M39.6087 10.8643C40.4674 10.8643 41.1636 10.1681 41.1636 9.30935C41.1636 8.45057 40.4674 7.75439 39.6087 7.75439C38.7499 7.75439 38.0537 8.45057 38.0537 9.30935C38.0537 10.1681 38.7499 10.8643 39.6087 10.8643Z" fill="white"/>
</svg>
